<svg fill="#393E46" xmlns="http://www.w3.org/2000/svg" viewBox="0 0 24 24" id="mahindra"><path d="M23.182 9.803c-.001 0-.001 0 0 0-2.684-3.653-9.027-4.205-13.647-3.571-4.806.662-8.467 2.569-9.328 4.859-.478 1.269-.137 2.584 1.012 3.908.838.966 1.875 1.435 2.495 1.715.127.058.239.108.331.154.097.05.211.03.287-.043 3.24-3.131 6.157-5.429 8.38-6.962a45.751 45.751 0 0 0-3.545 3.292c-1.589 1.636-2.694 2.941-3.283 3.879l-.034.054a.249.249 0 0 0 .14.4l.134.03c1.478.329 2.043.353 2.285.362.034.001.06.002.078.004a.248.248 0 0 0 .235-.105 164.92 164.92 0 0 1 3.14-4.304 56.146 56.146 0 0 1 3.976-4.545 91.473 91.473 0 0 0-3.443 5.013c-1.933 3.012-2.037 3.512-2.069 3.687a.249.249 0 0 0 .006.245c.092.158.315.125.5.125 5.077 0 11.339-1.741 12.83-4.635.582-1.134.421-2.332-.48-3.562zm-8.117-2.666c-.252.107-.673.293-1.233.549-4.132 1.887-6.645 3.294-8.31 4.225-1.417.794-2.198 1.23-2.554 1.129-.128-.037-.24-.158-.391-.429a2.129 2.129 0 0 1-.265-1.667c.209-.827.882-1.581 1.945-2.179C6.3 7.614 9.94 7.004 12.888 7.004c.792.001 1.531.045 2.177.133zm2.78.592c.015.002.058.02.092.034l.102.039c1.619.595 3.737 1.592 3.432 3.379v.001c-.281 1.701-3.232 3.488-5.224 4.021-.898.241-1.591.227-1.807-.039-.146-.177-.1-.529.129-.993a291.5 291.5 0 0 1 1.855-3.651c.333-.648.589-1.158.79-1.558.357-.711.593-1.181.631-1.233z"></path></svg>